<?xml version="1.0" encoding="utf-8"?>
<!-- Generator: Adobe Illustrator 15.1.0, SVG Export Plug-In . SVG Version: 6.00 Build 0)  -->
<!DOCTYPE svg PUBLIC "-//W3C//DTD SVG 1.1//EN" "http://www.w3.org/Graphics/SVG/1.1/DTD/svg11.dtd">
<svg version="1.1" id="Layer_1" xmlns="http://www.w3.org/2000/svg" xmlns:xlink="http://www.w3.org/1999/xlink" x="0px" y="0px"
	 width="439.967px" height="109.334px" viewBox="0 4.5 439.967 109.334" enable-background="new 0 4.5 439.967 109.334"
	 xml:space="preserve">
<g>
	<defs>
		<rect id="SVGID_1_" x="-28" y="-15" width="500" height="150"/>
	</defs>
	<clipPath id="SVGID_2_">
		<use xlink:href="#SVGID_1_"  overflow="visible"/>
	</clipPath>
	<path clip-path="url(#SVGID_2_)" fill="#F37322" d="M131.902,59.442c-3.468,4.199-6.306,8.062-9.499,14.072
		c-1.284,2.414-3.034,6.178-4.251,8.852l-6.966,18.432L100.95,74.404h-8.814l15.458,37.787h6.209l0.859-0.027l0.18-0.499
		c0.001-0.003,0.503-1.386,1.304-3.558l10.699-27.149c14.73-33.084,32.692-43.055,57.015-51.345
		C183.542,29.668,151.771,35.391,131.902,59.442"/>
</g>
<g>
	<defs>
		<rect id="SVGID_3_" x="-28" y="-15" width="500" height="150"/>
	</defs>
	<clipPath id="SVGID_4_">
		<use xlink:href="#SVGID_3_"  overflow="visible"/>
	</clipPath>
	<rect x="171.081" y="52.559" clip-path="url(#SVGID_4_)" fill="#F37322" width="7.919" height="59.632"/>
</g>
<g>
	<defs>
		<rect id="SVGID_5_" x="-28" y="-15" width="500" height="150"/>
	</defs>
	<clipPath id="SVGID_6_">
		<use xlink:href="#SVGID_5_"  overflow="visible"/>
	</clipPath>
	<path clip-path="url(#SVGID_6_)" fill="#F37322" d="M209.564,90.792c5.576-5.651,11.341-11.496,11.341-20.381
		c0-9.964-8.493-15.178-16.884-15.178c-9.417,0-15.857,4.916-17.668,13.485l-0.395,1.884l8.652,0.867l0.325-1.504
		c0.975-4.48,4.371-7.262,8.864-7.262c5.234,0,8.749,3.246,8.749,8.078c0,5.076-3.897,9.14-7.033,12.41l-20.238,21.379v7.621h36.001
		v-7.472h-25.273L209.564,90.792z"/>
</g>
<g>
	<defs>
		<rect id="SVGID_7_" x="-28" y="-15" width="500" height="150"/>
	</defs>
	<clipPath id="SVGID_8_">
		<use xlink:href="#SVGID_7_"  overflow="visible"/>
	</clipPath>
	<path clip-path="url(#SVGID_8_)" fill="#F37322" d="M241.922,55.233c-8.722,0-19.116,5.018-19.116,28.924
		c0,23.907,10.396,28.926,19.116,28.926c8.722,0,19.115-5.019,19.115-28.926C261.037,60.251,250.644,55.233,241.922,55.233
		 M241.922,105.614c-8.89,0-10.755-11.669-10.755-21.457c0-9.787,1.865-21.454,10.755-21.454s10.755,11.667,10.755,21.454
		C252.677,93.945,250.812,105.614,241.922,105.614"/>
</g>
<g>
	<defs>
		<rect id="SVGID_9_" x="-28" y="-15" width="500" height="150"/>
	</defs>
	<clipPath id="SVGID_10_">
		<use xlink:href="#SVGID_9_"  overflow="visible"/>
	</clipPath>
	<path clip-path="url(#SVGID_10_)" fill="#F37322" d="M282.054,55.233c-8.721,0-19.117,5.018-19.117,28.924
		c0,23.907,10.396,28.926,19.117,28.926s19.115-5.019,19.115-28.926C301.169,60.251,290.772,55.233,282.054,55.233 M282.054,105.614
		c-8.892,0-10.759-11.669-10.759-21.457c0-9.787,1.867-21.454,10.759-21.454c8.887,0,10.754,11.667,10.754,21.454
		C292.808,93.945,290.94,105.614,282.054,105.614"/>
</g>
<g>
	<defs>
		<rect id="SVGID_11_" x="-28" y="-15" width="500" height="150"/>
	</defs>
	<clipPath id="SVGID_12_">
		<use xlink:href="#SVGID_11_"  overflow="visible"/>
	</clipPath>
	<path clip-path="url(#SVGID_12_)" fill="#F37322" d="M322.182,55.233c-8.721,0-19.116,5.018-19.116,28.924
		c0,23.907,10.396,28.926,19.116,28.926c8.721,0,19.115-5.019,19.115-28.926C341.297,60.251,330.902,55.233,322.182,55.233
		 M322.182,105.614c-8.89,0-10.755-11.669-10.755-21.457c0-9.787,1.865-21.454,10.755-21.454s10.756,11.667,10.756,21.454
		C332.938,93.945,331.07,105.614,322.182,105.614"/>
</g>
<g>
	<defs>
		<rect id="SVGID_13_" x="-28" y="-15" width="500" height="150"/>
	</defs>
	<clipPath id="SVGID_14_">
		<use xlink:href="#SVGID_13_"  overflow="visible"/>
	</clipPath>
	<path clip-path="url(#SVGID_14_)" fill="#F37322" d="M369.924,95.02c1.333,0,2.573,0.646,3.797,1.981l1.062,1.149l4.7-3.536
		l-1.232-1.405c-2.195-2.484-5.152-3.854-8.327-3.854c-6.758,0-11.664,4.904-11.664,11.664c0,6.758,4.906,11.662,11.664,11.662
		c3.292,0,6.152-1.346,8.277-3.893l1.109-1.335l-4.558-3.769l-1.102,1.348c-1.041,1.277-2.364,1.98-3.729,1.98
		c-3.44,0-5.753-2.408-5.753-5.996C364.171,97.432,366.482,95.02,369.924,95.02"/>
</g>
<g>
	<defs>
		<rect id="SVGID_15_" x="-28" y="-15" width="500" height="150"/>
	</defs>
	<clipPath id="SVGID_16_">
		<use xlink:href="#SVGID_15_"  overflow="visible"/>
	</clipPath>
	<path clip-path="url(#SVGID_16_)" fill="#F37322" d="M392.939,89.355c-6.76,0-11.662,4.904-11.662,11.664
		c0,6.758,4.902,11.662,11.662,11.662c6.759,0,11.661-4.904,11.661-11.662C404.602,94.261,399.698,89.355,392.939,89.355
		 M392.939,107.016c-3.441,0-5.755-2.408-5.755-5.996s2.312-6,5.755-6c3.441,0,5.754,2.412,5.754,6
		C398.693,104.605,396.381,107.016,392.939,107.016"/>
</g>
<g>
	<defs>
		<rect id="SVGID_17_" x="-28" y="-15" width="500" height="150"/>
	</defs>
	<clipPath id="SVGID_18_">
		<use xlink:href="#SVGID_17_"  overflow="visible"/>
	</clipPath>
	<path clip-path="url(#SVGID_18_)" fill="#F37322" d="M431.043,89.355c-2.505,0-4.699,0.889-6.288,2.523
		c-1.401-1.636-3.429-2.523-5.812-2.523c-1.813,0-3.577,0.516-5.038,1.445l-0.026-0.956h-5.858v1.729c0,0.464,0.04,1.354,0.09,2.322
		c0.055,1.078,0.11,2.256,0.11,2.99v15.303h5.911v-11.17c0-3.812,1.305-5.979,4.362-5.979c1.814,0,2.673,1.879,2.646,4.06v13.094
		h5.911V99.835c0-1.448,0.391-4.815,3.993-4.815c1.459,0,3.095,0.599,3.016,4.321v12.851h5.908V99.22
		C439.967,92.768,436.881,89.355,431.043,89.355"/>
</g>
<g>
	<defs>
		<rect id="SVGID_19_" x="-28" y="-15" width="500" height="150"/>
	</defs>
	<clipPath id="SVGID_20_">
		<use xlink:href="#SVGID_19_"  overflow="visible"/>
	</clipPath>
	<path clip-path="url(#SVGID_20_)" fill="#F37322" d="M348.423,101.479c-3.14,0-5.601,2.463-5.601,5.605
		c0,3.139,2.461,5.598,5.601,5.598c3.141,0,5.602-2.459,5.602-5.598C354.023,103.939,351.562,101.479,348.423,101.479"/>
</g>
<g>
	<defs>
		<rect id="SVGID_21_" x="-28" y="-15" width="500" height="150"/>
	</defs>
	<clipPath id="SVGID_22_">
		<use xlink:href="#SVGID_21_"  overflow="visible"/>
	</clipPath>
	<path clip-path="url(#SVGID_22_)" fill="#F37322" d="M90.975,96.045v-8.396c0-8.982-5.613-14.135-15.399-14.135
		c-2.725,0-4.354,0.271-7.57,1.041L67.343,82.2c2.215-1.356,5.502-1.481,8.242-1.481c5.262,0,7.921,2.481,7.921,6.858v0.349h-3.473
		c-17.152,0-20.752,7.204-20.752,13.247c0,8.228,6.953,11.91,13.842,11.91c4.521,0,8.049-1.222,10.724-3.722
		c0.059,0.479,0.128,0.947,0.206,1.396l0.248,1.435h7.588l-0.258-1.955C91.141,106.533,90.975,102.953,90.975,96.045 M83.506,95.525
		c0,6.692-3.443,10.089-10.233,10.089c-2.945,0-6.074-1.636-6.074-4.662c0-5.416,9.184-6.001,13.132-6.001h3.175V95.525z"/>
</g>
<g>
	<defs>
		<rect id="SVGID_23_" x="-28" y="-15" width="500" height="150"/>
	</defs>
	<clipPath id="SVGID_24_">
		<use xlink:href="#SVGID_23_"  overflow="visible"/>
	</clipPath>
	<path clip-path="url(#SVGID_24_)" fill="#F37322" d="M61.48,82.302l0.953-7.807l-1.483-0.562c-0.839-0.207-1.854-0.42-3.016-0.42
		c-3.653,0-6.885,1.314-9.455,3.824c-0.009-0.341-0.019-0.676-0.028-0.992l-0.058-1.94h-7.868v1.727c0,0.832,0.079,2.423,0.166,4.15
		l0.011,0.225c0.092,1.878,0.196,4.005,0.196,5.286v26.398h7.917V91.738c0-6.553,3.458-10.352,9.49-10.311
		C60.469,81.443,61.48,82.302,61.48,82.302"/>
</g>
<g>
	<defs>
		<rect id="SVGID_25_" x="-28" y="-15" width="500" height="150"/>
	</defs>
	<clipPath id="SVGID_26_">
		<use xlink:href="#SVGID_25_"  overflow="visible"/>
	</clipPath>
	<rect x="4.554" y="74.404" clip-path="url(#SVGID_26_)" fill="#F37322" width="7.917" height="37.787"/>
</g>
<g>
	<defs>
		<rect id="SVGID_27_" x="-28" y="-15" width="500" height="150"/>
	</defs>
	<clipPath id="SVGID_28_">
		<use xlink:href="#SVGID_27_"  overflow="visible"/>
	</clipPath>
	<path clip-path="url(#SVGID_28_)" fill="#F37322" d="M27.896,64.521h-7.915v37.99c0,6.618,3.952,10.571,10.569,10.571h5.035v-7.47
		h-4.66c-2.039,0-3.029-1.016-3.029-3.103V81.872h7.689v-7.468h-7.689V64.521z"/>
</g>
<g>
	<defs>
		<rect id="SVGID_29_" x="-28" y="-15" width="500" height="150"/>
	</defs>
	<clipPath id="SVGID_30_">
		<use xlink:href="#SVGID_29_"  overflow="visible"/>
	</clipPath>
	<path clip-path="url(#SVGID_30_)" fill="#F37322" d="M8.513,60.345c-3.11,0-5.546,2.438-5.546,5.55
		c0,3.107,2.436,5.541,5.546,5.541c3.109,0,5.544-2.434,5.544-5.541C14.057,62.781,11.622,60.345,8.513,60.345"/>
</g>
<g>
	<defs>
		<rect id="SVGID_31_" x="-28" y="-15" width="500" height="150"/>
	</defs>
	<clipPath id="SVGID_32_">
		<use xlink:href="#SVGID_31_"  overflow="visible"/>
	</clipPath>
	<path clip-path="url(#SVGID_32_)" fill="#F37322" d="M238.444,21.731c-0.182-0.773-2.088-1.438-3.989-1.722
		c-2.263-0.337-2.795-0.443-10.593,0.4c-1.764,0.191-4.188,0.524-6.905,0.929l-0.3-1.568l1.18-0.193
		c0.905-0.15,1.519-1.006,1.369-1.912c-0.149-0.905-0.998-1.519-1.906-1.37l-1.266,0.207l-0.17-0.893l0.56-0.092
		c0.907-0.149,1.521-1.004,1.373-1.91c-0.148-0.904-1.005-1.519-1.911-1.37l-0.645,0.106l-1.303-6.832l-2.219,0.223l-2.974,16.893
		c-5.53,0.899-10.914,1.827-13.81,2.332l0.003-0.008l-2.2,0.391l-1.054-4.361l-1.68,0.139l-0.891,4.128l-8.99-4.227l-2.647,0.499
		l9.013,8.236l-2.291,3.853c0,0,2.359-0.335,2.505-0.449c0.148-0.111,3.438-2.615,3.438-2.615s0.789,0.095,1.907,0.208
		c2.187,0.252,4.986,0.439,8.04,0.316c1.599-0.064,3.693-0.261,6.035-0.533L194.2,48.845l2.772-0.403l6.448-6.72l3.872-0.181
		c0.98-0.046,1.73-0.875,1.686-1.852c-0.047-0.976-0.872-1.731-1.851-1.686l-0.147,0.007l1.309-1.363l3.373-0.159
		c0.976-0.045,1.729-0.873,1.684-1.849c-0.041-0.867-0.699-1.556-1.53-1.668l3.508-3.657c4.025-0.576,7.946-1.166,10.856-1.556
		c8.334-1.118,10.156-2.82,10.887-3.44C237.812,23.686,238.713,22.867,238.444,21.731"/>
</g>
<g>
	<defs>
		<rect id="SVGID_33_" x="-28" y="-15" width="500" height="150"/>
	</defs>
	<clipPath id="SVGID_34_">
		<use xlink:href="#SVGID_33_"  overflow="visible"/>
	</clipPath>
	<path clip-path="url(#SVGID_34_)" fill="#F37322" d="M165.435,91.292c0-8.836-6.132-17.778-17.853-17.778
		c-10.949,0-18.894,8.288-18.894,19.709c0,11.692,7.861,19.86,19.119,19.86c6.919,0,12.236-2.556,15.85-7.54l-6.48-4.154
		c-2.078,2.532-5.713,4.227-9.299,4.227c-8.464,0-10.587-6.873-11.087-9.473h28.644V91.292L165.435,91.292z M137.021,88.669
		c0.808-2.332,3.415-7.688,10.338-7.688c4.885,0,9.099,3.312,9.986,7.688H137.021z"/>
</g>
<g>
	<defs>
		<rect id="SVGID_35_" x="-28" y="-15" width="500" height="150"/>
	</defs>
	<clipPath id="SVGID_36_">
		<use xlink:href="#SVGID_35_"  overflow="visible"/>
	</clipPath>
	<polygon clip-path="url(#SVGID_36_)" fill="#F37322" points="342.435,57.013 344.672,57.013 344.672,63.004 345.86,63.004 
		345.86,57.013 348.098,57.013 348.098,55.881 342.435,55.881 	"/>
</g>
<g>
	<defs>
		<rect id="SVGID_37_" x="-28" y="-15" width="500" height="150"/>
	</defs>
	<clipPath id="SVGID_38_">
		<use xlink:href="#SVGID_37_"  overflow="visible"/>
	</clipPath>
	<polygon clip-path="url(#SVGID_38_)" fill="#F37322" points="352.575,60.938 350.379,55.881 348.984,55.881 348.984,63.004 
		350.174,63.004 350.174,58.28 352.247,63.004 352.894,63.004 354.93,58.299 354.93,63.004 356.118,63.004 356.118,55.881 
		354.771,55.881 	"/>
</g>
</svg>
